<mxfile host="app.diagrams.net" modified="2022-11-11T14:46:45.405Z" agent="5.0 (Windows NT 10.0; Win64; x64) AppleWebKit/537.36 (KHTML, like Gecko) Chrome/107.0.0.0 Safari/537.36 Edg/107.0.1418.35" etag="WctgA4ouNDoF7lyiKvzG" version="20.5.3" type="github">
  <diagram id="bEGDMLkyy39qROurjBoP" name="Page-1">
    <mxGraphModel dx="824" dy="640" grid="1" gridSize="10" guides="1" tooltips="1" connect="1" arrows="1" fold="1" page="1" pageScale="1" pageWidth="827" pageHeight="1169" math="0" shadow="0">
      <root>
        <mxCell id="0" />
        <mxCell id="1" parent="0" />
        <mxCell id="91wkXxUW8TuUGEnlo1y_-1" value="" style="ellipse;html=1;shape=startState;fillColor=#000000;strokeColor=#ff0000;" parent="1" vertex="1">
          <mxGeometry x="310" y="50" width="30" height="30" as="geometry" />
        </mxCell>
        <mxCell id="91wkXxUW8TuUGEnlo1y_-2" value="" style="edgeStyle=orthogonalEdgeStyle;html=1;verticalAlign=bottom;endArrow=open;endSize=8;strokeColor=#ff0000;rounded=0;" parent="1" source="91wkXxUW8TuUGEnlo1y_-1" edge="1">
          <mxGeometry relative="1" as="geometry">
            <mxPoint x="400" y="140" as="targetPoint" />
          </mxGeometry>
        </mxCell>
        <mxCell id="91wkXxUW8TuUGEnlo1y_-6" value="collecting" style="rounded=1;whiteSpace=wrap;html=1;arcSize=40;fontColor=#000000;fillColor=#ffffc0;strokeColor=#ff0000;" parent="1" vertex="1">
          <mxGeometry x="340" y="140" width="120" height="40" as="geometry" />
        </mxCell>
        <mxCell id="91wkXxUW8TuUGEnlo1y_-9" value="formatting" style="rounded=1;whiteSpace=wrap;html=1;arcSize=40;fontColor=#000000;fillColor=#ffffc0;strokeColor=#ff0000;" parent="1" vertex="1">
          <mxGeometry x="570" y="140" width="120" height="40" as="geometry" />
        </mxCell>
        <mxCell id="52-B_k3ITm1QC-UGr9lQ-12" value="" style="edgeStyle=orthogonalEdgeStyle;rounded=0;orthogonalLoop=1;jettySize=auto;html=1;fillColor=#e51400;strokeColor=#FF0000;" edge="1" parent="1" source="91wkXxUW8TuUGEnlo1y_-12" target="52-B_k3ITm1QC-UGr9lQ-11">
          <mxGeometry relative="1" as="geometry" />
        </mxCell>
        <mxCell id="91wkXxUW8TuUGEnlo1y_-12" value="comparing" style="rounded=1;whiteSpace=wrap;html=1;arcSize=40;fontColor=#000000;fillColor=#ffffc0;strokeColor=#ff0000;" parent="1" vertex="1">
          <mxGeometry x="540" y="220" width="120" height="40" as="geometry" />
        </mxCell>
        <mxCell id="91wkXxUW8TuUGEnlo1y_-13" value="" style="edgeStyle=orthogonalEdgeStyle;html=1;verticalAlign=bottom;endArrow=open;endSize=8;strokeColor=#ff0000;rounded=0;entryX=0;entryY=0.5;entryDx=0;entryDy=0;" parent="1" target="91wkXxUW8TuUGEnlo1y_-9" edge="1">
          <mxGeometry relative="1" as="geometry">
            <mxPoint x="560" y="160" as="targetPoint" />
            <mxPoint x="460" y="159.5" as="sourcePoint" />
          </mxGeometry>
        </mxCell>
        <mxCell id="91wkXxUW8TuUGEnlo1y_-15" value="sending" style="rounded=1;whiteSpace=wrap;html=1;arcSize=40;fontColor=#000000;fillColor=#ffffc0;strokeColor=#ff0000;" parent="1" vertex="1">
          <mxGeometry x="770" y="140" width="120" height="40" as="geometry" />
        </mxCell>
        <mxCell id="91wkXxUW8TuUGEnlo1y_-16" value="" style="edgeStyle=orthogonalEdgeStyle;html=1;verticalAlign=bottom;endArrow=open;endSize=8;strokeColor=#ff0000;rounded=0;exitX=1;exitY=0.5;exitDx=0;exitDy=0;entryX=0;entryY=0.5;entryDx=0;entryDy=0;" parent="1" source="91wkXxUW8TuUGEnlo1y_-9" target="91wkXxUW8TuUGEnlo1y_-15" edge="1">
          <mxGeometry relative="1" as="geometry">
            <mxPoint x="800" y="240" as="targetPoint" />
          </mxGeometry>
        </mxCell>
        <mxCell id="91wkXxUW8TuUGEnlo1y_-17" value="" style="edgeStyle=orthogonalEdgeStyle;html=1;verticalAlign=bottom;endArrow=open;endSize=8;strokeColor=#ff0000;rounded=0;exitX=0.5;exitY=1;exitDx=0;exitDy=0;entryX=1;entryY=0.5;entryDx=0;entryDy=0;" parent="1" source="91wkXxUW8TuUGEnlo1y_-15" target="91wkXxUW8TuUGEnlo1y_-12" edge="1">
          <mxGeometry relative="1" as="geometry">
            <mxPoint x="730" y="240" as="targetPoint" />
            <mxPoint x="670" y="170" as="sourcePoint" />
            <Array as="points">
              <mxPoint x="800" y="240" />
            </Array>
          </mxGeometry>
        </mxCell>
        <mxCell id="52-B_k3ITm1QC-UGr9lQ-4" value="Initial" style="text;html=1;strokeColor=none;fillColor=none;align=center;verticalAlign=middle;whiteSpace=wrap;rounded=0;" vertex="1" parent="1">
          <mxGeometry x="295" y="80" width="60" height="30" as="geometry" />
        </mxCell>
        <mxCell id="52-B_k3ITm1QC-UGr9lQ-5" value="collect disease signals" style="text;html=1;strokeColor=none;fillColor=none;align=center;verticalAlign=middle;whiteSpace=wrap;rounded=0;" vertex="1" parent="1">
          <mxGeometry x="400" y="90" width="60" height="30" as="geometry" />
        </mxCell>
        <mxCell id="52-B_k3ITm1QC-UGr9lQ-6" value="format disease signals" style="text;html=1;strokeColor=none;fillColor=none;align=center;verticalAlign=middle;whiteSpace=wrap;rounded=0;" vertex="1" parent="1">
          <mxGeometry x="480" y="120" width="60" height="30" as="geometry" />
        </mxCell>
        <mxCell id="52-B_k3ITm1QC-UGr9lQ-7" value="send to central monitor" style="text;html=1;strokeColor=none;fillColor=none;align=center;verticalAlign=middle;whiteSpace=wrap;rounded=0;" vertex="1" parent="1">
          <mxGeometry x="690" y="120" width="60" height="30" as="geometry" />
        </mxCell>
        <mxCell id="52-B_k3ITm1QC-UGr9lQ-10" value="compare with normal disease signals" style="text;html=1;strokeColor=none;fillColor=none;align=center;verticalAlign=middle;whiteSpace=wrap;rounded=0;" vertex="1" parent="1">
          <mxGeometry x="680" y="200" width="120" height="30" as="geometry" />
        </mxCell>
        <mxCell id="52-B_k3ITm1QC-UGr9lQ-15" value="" style="edgeStyle=orthogonalEdgeStyle;rounded=0;orthogonalLoop=1;jettySize=auto;html=1;strokeColor=#FF0000;entryX=0.5;entryY=0;entryDx=0;entryDy=0;" edge="1" parent="1" source="52-B_k3ITm1QC-UGr9lQ-11" target="52-B_k3ITm1QC-UGr9lQ-23">
          <mxGeometry relative="1" as="geometry">
            <mxPoint x="540" y="440" as="targetPoint" />
          </mxGeometry>
        </mxCell>
        <mxCell id="52-B_k3ITm1QC-UGr9lQ-17" value="" style="edgeStyle=orthogonalEdgeStyle;rounded=0;orthogonalLoop=1;jettySize=auto;html=1;strokeColor=#FF0000;" edge="1" parent="1" source="52-B_k3ITm1QC-UGr9lQ-11">
          <mxGeometry relative="1" as="geometry">
            <mxPoint x="340" y="430" as="targetPoint" />
          </mxGeometry>
        </mxCell>
        <mxCell id="52-B_k3ITm1QC-UGr9lQ-11" value="" style="rhombus;whiteSpace=wrap;html=1;fillColor=#ffffc0;strokeColor=#ff0000;fontColor=#000000;rounded=1;arcSize=40;" vertex="1" parent="1">
          <mxGeometry x="390" y="285" width="80" height="80" as="geometry" />
        </mxCell>
        <mxCell id="52-B_k3ITm1QC-UGr9lQ-13" value="&amp;nbsp;disease signals abnormal" style="text;html=1;strokeColor=none;fillColor=none;align=center;verticalAlign=middle;whiteSpace=wrap;rounded=0;" vertex="1" parent="1">
          <mxGeometry x="450" y="255" width="60" height="30" as="geometry" />
        </mxCell>
        <mxCell id="52-B_k3ITm1QC-UGr9lQ-18" value="True" style="text;html=1;strokeColor=none;fillColor=none;align=center;verticalAlign=middle;whiteSpace=wrap;rounded=0;" vertex="1" parent="1">
          <mxGeometry x="330" y="365" width="60" height="30" as="geometry" />
        </mxCell>
        <mxCell id="52-B_k3ITm1QC-UGr9lQ-19" value="False" style="text;html=1;strokeColor=none;fillColor=none;align=center;verticalAlign=middle;whiteSpace=wrap;rounded=0;" vertex="1" parent="1">
          <mxGeometry x="550" y="365" width="60" height="30" as="geometry" />
        </mxCell>
        <mxCell id="52-B_k3ITm1QC-UGr9lQ-23" value="" style="ellipse;html=1;shape=endState;fillColor=#000000;strokeColor=#ff0000;" vertex="1" parent="1">
          <mxGeometry x="530" y="440" width="30" height="30" as="geometry" />
        </mxCell>
        <mxCell id="52-B_k3ITm1QC-UGr9lQ-24" value="" style="whiteSpace=wrap;html=1;fillColor=#ffffc0;strokeColor=#ff0000;fontColor=#000000;rounded=1;arcSize=40;" vertex="1" parent="1">
          <mxGeometry x="230" y="430" width="230" height="370" as="geometry" />
        </mxCell>
        <mxCell id="52-B_k3ITm1QC-UGr9lQ-25" value="" style="ellipse;html=1;shape=startState;fillColor=#000000;strokeColor=#ff0000;" vertex="1" parent="1">
          <mxGeometry x="325" y="430" width="30" height="30" as="geometry" />
        </mxCell>
        <mxCell id="52-B_k3ITm1QC-UGr9lQ-26" value="" style="edgeStyle=orthogonalEdgeStyle;html=1;verticalAlign=bottom;endArrow=open;endSize=8;strokeColor=#ff0000;rounded=0;" edge="1" source="52-B_k3ITm1QC-UGr9lQ-25" parent="1">
          <mxGeometry relative="1" as="geometry">
            <mxPoint x="340" y="490" as="targetPoint" />
          </mxGeometry>
        </mxCell>
        <mxCell id="52-B_k3ITm1QC-UGr9lQ-31" value="" style="edgeStyle=orthogonalEdgeStyle;rounded=0;orthogonalLoop=1;jettySize=auto;html=1;strokeColor=#FF0000;" edge="1" parent="1" source="52-B_k3ITm1QC-UGr9lQ-27" target="52-B_k3ITm1QC-UGr9lQ-30">
          <mxGeometry relative="1" as="geometry" />
        </mxCell>
        <mxCell id="52-B_k3ITm1QC-UGr9lQ-27" value="Alarming" style="rounded=1;whiteSpace=wrap;html=1;arcSize=40;fontColor=#000000;fillColor=#ffffc0;strokeColor=#ff0000;" vertex="1" parent="1">
          <mxGeometry x="280" y="490" width="120" height="40" as="geometry" />
        </mxCell>
        <mxCell id="52-B_k3ITm1QC-UGr9lQ-33" value="" style="edgeStyle=orthogonalEdgeStyle;rounded=0;orthogonalLoop=1;jettySize=auto;html=1;strokeColor=#FF0000;" edge="1" parent="1" source="52-B_k3ITm1QC-UGr9lQ-30" target="52-B_k3ITm1QC-UGr9lQ-32">
          <mxGeometry relative="1" as="geometry" />
        </mxCell>
        <mxCell id="52-B_k3ITm1QC-UGr9lQ-30" value="Printing Disease Report" style="rounded=1;whiteSpace=wrap;html=1;fillColor=#ffffc0;strokeColor=#ff0000;fontColor=#000000;arcSize=40;" vertex="1" parent="1">
          <mxGeometry x="280" y="580" width="120" height="50" as="geometry" />
        </mxCell>
        <mxCell id="52-B_k3ITm1QC-UGr9lQ-32" value="Updating Medical Records" style="whiteSpace=wrap;html=1;fillColor=#ffffc0;strokeColor=#ff0000;fontColor=#000000;rounded=1;arcSize=40;" vertex="1" parent="1">
          <mxGeometry x="280" y="705" width="120" height="45" as="geometry" />
        </mxCell>
        <mxCell id="52-B_k3ITm1QC-UGr9lQ-35" value="" style="endArrow=classic;html=1;rounded=0;strokeColor=#FF0000;exitX=0.5;exitY=1;exitDx=0;exitDy=0;" edge="1" parent="1" source="52-B_k3ITm1QC-UGr9lQ-24" target="52-B_k3ITm1QC-UGr9lQ-36">
          <mxGeometry width="50" height="50" relative="1" as="geometry">
            <mxPoint x="370" y="700" as="sourcePoint" />
            <mxPoint x="345" y="840" as="targetPoint" />
          </mxGeometry>
        </mxCell>
        <mxCell id="52-B_k3ITm1QC-UGr9lQ-36" value="" style="ellipse;html=1;shape=endState;fillColor=#000000;strokeColor=#ff0000;" vertex="1" parent="1">
          <mxGeometry x="330" y="825" width="30" height="30" as="geometry" />
        </mxCell>
      </root>
    </mxGraphModel>
  </diagram>
</mxfile>
